<svg width="64" height="64" viewBox="0 0 64 64" fill="none" xmlns="http://www.w3.org/2000/svg">
<path d="M56.3 33.4L55.1 15.3L46.8 20.4C42.7 19.7 41.6 19.7 38.4 18.2C36.5 17.3 34.1 17.9 32.9 18.6C31.1 16.7 19.4 19.5 18.1 20.1C14.6 19 9.39998 15 9.39998 15L7.59998 35.4L9.99998 36C10.2 36.7 10.8 38.4 10.8 38.4C8.59998 41.2 11.2 44.5 13.7 43.4C12.6 46.2 15.5 48.8 17.8 47C17.5 49.6 20.2 51.5 22.2 49.7C21.3 52.8 24.8 55.1 26.9 52.6C28.4 53.6 29.8 54.4 31 54.8C33.1 55.7 35.4 53.7 35 51.2C37.4 54 41 51.3 40.2 48.2C42.9 50.3 46.2 46.8 44.5 43.7C47.5 45.4 50.1 40.8 47.2 37.8L56.3 33.4Z" fill="#FFDD67"/>
<path d="M53.4 16.3L56.7 33.4L54 34.6C52.6 30.9 50.5 22 51 17.7L53.4 16.3Z" fill="#3B946F"/>
<path d="M11.1 38C10.6 36.8 10.3 35.2 10.3 35.2L7.79998 33.5L7.59998 35.4L9.79998 36C10.1 37 10.4 37.8 10.8 38.4L11.1 38Z" fill="#EBA352"/>
<path d="M6.09998 35.1L11.5 16.4L14 18.1C14.4 20.9 9.79998 33.7 8.09998 35.6L6.09998 35.1Z" fill="#3B946F"/>
<path d="M53.3 16.2C52.5 16.7 55.4 34 56.6 33.5C60.4 31.8 62.1 31.3 62.1 31.3V10.7C62 10.7 59.7 12.4 53.3 16.2ZM2 9V34.5C2 34.5 3.8 34.8 6.1 35.3C7.4 35.6 12.1 16.8 11.8 16.5C8.4 14.2 2 9 2 9Z" fill="#47B892"/>
</svg>
