<svg width="49" height="48" viewBox="0 0 49 48" fill="none" xmlns="http://www.w3.org/2000/svg">
<path d="M42.4077 39H6.40771V23L24.4077 6L42.4077 23V39Z" fill="#E8EAF6"/>
<path d="M39.4077 21L34.4077 16V9H39.4077V21ZM6.40771 39H42.4077V44H6.40771V39Z" fill="#C5CAE9"/>
<path d="M24.4077 4.3L4.40771 22.9L6.40771 25.1L24.4077 8.4L42.4077 25.1L44.4077 22.9L24.4077 4.3Z" fill="#B71C1C"/>
<path d="M18.4077 28H30.4077V44H18.4077V28Z" fill="#D84315"/>
<path d="M21.4077 17H27.4077V23H21.4077V17Z" fill="#01579B"/>
<path d="M27.9077 35.5C27.6077 35.5 27.4077 35.7 27.4077 36V38C27.4077 38.3 27.6077 38.5 27.9077 38.5C28.2077 38.5 28.4077 38.3 28.4077 38V36C28.4077 35.7 28.2077 35.5 27.9077 35.5Z" fill="#FF8A65"/>
</svg>
