<svg width="36" height="36" viewBox="0 0 36 36" fill="none" xmlns="http://www.w3.org/2000/svg">
<g clip-path="url(#clip0_8_118)">
<path d="M32.043 36L32 35C32 31 29.043 28 24.043 28H12.043C7.043 28 4 31 4 35L4.043 36H32.043Z" fill="#F2760F"/>
<path d="M9 28.298V36H12V28C10.897 28 9.898 28.103 9 28.298ZM24 28V36H27V28.298C26.0135 28.0921 25.0078 27.9922 24 28Z" fill="#FFF75F"/>
<path d="M13 27H23V31H13V27Z" fill="#292F33"/>
<path d="M14 27H22C22 27 20.982 34 18 34C15.018 34 14 27 14 27Z" fill="#292F33"/>
<path d="M13.64 30.038C15.385 31.306 16.489 32.001 18 32.001C19.511 32.001 20.615 31.305 22.359 30.038V24.289H13.639L13.64 30.038Z" fill="#FFDC5D"/>
<path d="M13.632 25.973C14.848 27.347 16.356 27.719 17.996 27.719C19.635 27.719 21.142 27.346 22.359 25.973V22.482H13.631V25.973H13.632Z" fill="#F9CA55"/>
<path d="M21.513 4.15C19.632 3.542 15.207 3.707 14.101 5.146C11.225 5.201 7.85101 7.8 7.40801 11.23C6.97001 14.624 7.94601 16.2 8.29301 18.753C8.68601 21.645 10.312 22.57 11.612 22.957C13.482 25.427 15.47 25.322 18.807 25.322C25.325 25.322 28.429 20.961 28.703 13.554C28.87 9.073 26.241 5.68 21.513 4.15Z" fill="#FFAC33"/>
<path d="M25.24 13.87C24.609 12.997 23.802 12.294 22.032 12.045C22.696 12.349 23.332 13.4 23.415 13.981C23.498 14.562 23.581 15.032 23.056 14.451C20.951 12.124 18.659 13.04 16.387 11.619C14.8 10.626 14.317 9.528 14.317 9.528C14.317 9.528 14.123 10.994 11.717 12.487C11.02 12.92 10.187 13.884 9.72603 15.308C9.39403 16.331 9.49703 17.244 9.49703 18.804C9.49703 23.357 13.249 27.184 17.877 27.184C22.505 27.184 26.257 23.323 26.257 18.804C26.256 15.971 25.96 14.865 25.24 13.87Z" fill="#FFDC5D"/>
<path d="M18.807 21.131H16.945C16.8214 21.131 16.7029 21.0819 16.6155 20.9945C16.5281 20.9071 16.479 20.7886 16.479 20.665C16.479 20.5414 16.5281 20.4229 16.6155 20.3355C16.7029 20.2481 16.8214 20.199 16.945 20.199H18.807C18.9306 20.199 19.0492 20.2481 19.1365 20.3355C19.2239 20.4229 19.273 20.5414 19.273 20.665C19.273 20.7886 19.2239 20.9071 19.1365 20.9945C19.0492 21.0819 18.9306 21.131 18.807 21.131ZM18 24.467C15.246 24.467 14.4 23.762 14.26 23.619C14.1341 23.4994 14.0608 23.3346 14.0563 23.161C14.0517 22.9873 14.1164 22.819 14.236 22.693C14.3556 22.567 14.5204 22.4937 14.6941 22.4892C14.8677 22.4847 15.0361 22.5494 15.162 22.669C15.213 22.706 15.883 23.156 18 23.156C20.201 23.156 20.836 22.671 20.842 22.666C20.9026 22.6062 20.9745 22.5591 21.0535 22.5274C21.1325 22.4957 21.2171 22.4801 21.3022 22.4815C21.3873 22.4829 21.4713 22.5013 21.5492 22.5355C21.6271 22.5698 21.6975 22.6192 21.756 22.681C21.8772 22.8079 21.9436 22.9774 21.941 23.1529C21.9384 23.3283 21.8669 23.4957 21.742 23.619C21.6 23.762 20.754 24.467 18 24.467Z" fill="#C1694F"/>
<path d="M14.1519 17.872C13.905 17.872 13.6682 17.7739 13.4936 17.5993C13.319 17.4247 13.2209 17.1879 13.2209 16.941V16.01C13.2209 15.7631 13.319 15.5263 13.4936 15.3517C13.6682 15.1771 13.905 15.079 14.1519 15.079C14.3989 15.079 14.6357 15.1771 14.8103 15.3517C14.9849 15.5263 15.0829 15.7631 15.0829 16.01V16.941C15.0829 17.1879 14.9849 17.4247 14.8103 17.5993C14.6357 17.7739 14.3989 17.872 14.1519 17.872ZM21.6009 17.872C21.354 17.872 21.1172 17.7739 20.9426 17.5993C20.768 17.4247 20.6699 17.1879 20.6699 16.941V16.01C20.6699 15.7631 20.768 15.5263 20.9426 15.3517C21.1172 15.1771 21.354 15.079 21.6009 15.079C21.8479 15.079 22.0847 15.1771 22.2593 15.3517C22.4339 15.5263 22.5319 15.7631 22.5319 16.01V16.941C22.5319 17.1879 22.4339 17.4247 22.2593 17.5993C22.0847 17.7739 21.8479 17.872 21.6009 17.872Z" fill="#662113"/>
<path d="M19 34.938L18 35.999L17 34.999V31.999H19V34.938Z" fill="#292F33"/>
<path d="M11 28C11 29 12 31 14 33C15.582 34.581 18 36 18 36C18 32.937 17 32 16 31C15 30 13 29 13 27C13 26 11 28 11 28ZM25 28C25 29 24 31 22 33C20.42 34.581 18 36 18 36C18 32.937 19 32 20 31C21 30 23 29 23 27C23 26 25 28 25 28Z" fill="#55ACEE"/>
<path d="M30 11C27 9 28.992 6.831 27 4C25.127 1.337 22 0 17.998 0C13 0 10.874 1.337 8.99999 4C7.00799 6.831 8.99999 9 5.99999 11C4.13899 12.24 12 13.313 18 13.313C24 13.313 31.861 12.24 30 11Z" fill="#FFF75F"/>
<path d="M15.9999 11.5V0.0879993C15.6499 0.119999 15.3169 0.161999 14.9999 0.211999V10.493C12.9099 10.443 9.87594 10.097 7.34694 9.64C7.15082 9.9686 6.90451 10.2645 6.61694 10.517C9.52694 11.083 13.2129 11.5 15.4999 11.5H15.9999ZM28.8549 9.947C26.0019 10.251 23.0159 10.464 20.9999 10.496V0.291999C20.6769 0.225999 20.3399 0.179999 19.9999 0.136999V11.5H20.4999C22.5179 11.5 26.2959 11.239 29.7889 10.843C29.4349 10.5923 29.1202 10.2903 28.8549 9.947Z" fill="#FFAC33"/>
</g>
<defs>
<clipPath id="clip0_8_118">
<rect width="36" height="36" fill="white"/>
</clipPath>
</defs>
</svg>
